<svg xmlns="http://www.w3.org/2000/svg" viewBox="0 0 48 48" width="48" height="48">
<defs><linearGradient id="folder_open-back" x1="0" y1="0" x2="0" y2="1" gradientUnits="objectBoundingBox"><stop offset="0" stop-color="#F0B429"/><stop offset="1" stop-color="#D9920F"/></linearGradient><linearGradient id="folder_open-front" x1="0" y1="0" x2="0" y2="1" gradientUnits="objectBoundingBox"><stop offset="0" stop-color="#FFDC6E"/><stop offset="1" stop-color="#F5B82E"/></linearGradient></defs>
<path d="M6 8h10.6c.8 0 1.5.3 2.1.9L21.6 12H42c1.1 0 2 .9 2 2v24c0 1.1-.9 2-2 2H6c-1.1 0-2-.9-2-2V10c0-1.1.9-2 2-2z" fill="url(#folder_open-back)"/>
<path d="M6 8.5h10.6c.7 0 1.3.3 1.8.8L21.4 12.5" fill="none" stroke="#FFE08A" stroke-opacity=".55"/>
<path d="M9 12.5h29c.6 0 1 .4 1 1V22H8v-8.5c0-.6.4-1 1-1z" fill="#FFFFFF" fill-opacity=".95"/>
<path d="M11 16h14M11 19h20" stroke="#C9D3DE" stroke-width="1.4" stroke-linecap="round"/>
<path d="M9.6 19.5h34.6c1.3 0 2.2 1.2 1.9 2.5l-3.7 16.4c-.2.9-1 1.6-2 1.6H6.2c-1.3 0-2.2-1.2-1.9-2.5l3.4-16.4c.2-.9 1-1.6 1.9-1.6z" fill="url(#folder_open-front)"/>
<path d="M9.6 20.2h34.6" stroke="#FFF1B8" stroke-opacity=".9"/>
</svg>
