<svg xmlns="http://www.w3.org/2000/svg" viewBox="0 0 48 48" width="48" height="48">
<defs><linearGradient id="network-frame" x1="0" y1="0" x2="0" y2="1" gradientUnits="objectBoundingBox"><stop offset="0" stop-color="#B4BDC8"/><stop offset="1" stop-color="#7E8895"/></linearGradient><linearGradient id="network-screen" x1="0" y1="0" x2="1" y2="1" gradientUnits="objectBoundingBox"><stop offset="0" stop-color="#3AC0F2"/><stop offset="1" stop-color="#1B6BE0"/></linearGradient><linearGradient id="network-stand" x1="0" y1="0" x2="0" y2="1" gradientUnits="objectBoundingBox"><stop offset="0" stop-color="#8A94A0"/><stop offset="1" stop-color="#5E6A78"/></linearGradient><radialGradient id="network-globe" cx="0.36" cy="0.30" r="0.78" gradientUnits="objectBoundingBox"><stop offset="0" stop-color="#8BE3FF"/><stop offset="0.45" stop-color="#2E9BF6"/><stop offset="1" stop-color="#1348C9"/></radialGradient><radialGradient id="network-shine" cx="0.5" cy="0.5" r="0.5" gradientUnits="objectBoundingBox"><stop offset="0" stop-color="#FFFFFF" stop-opacity="0.75"/><stop offset="1" stop-color="#FFFFFF" stop-opacity="0"/></radialGradient><clipPath id="network-sphere"><circle cx="35" cy="35" r="9.4"/></clipPath></defs>
<rect x="3" y="5" width="34" height="24" rx="2.2" fill="url(#network-frame)"/>
<rect x="5.2" y="7.2" width="29.6" height="19.6" rx="0.9" fill="url(#network-screen)"/>
<path d="M5.2 23c7-4.6 16-7 29.6-6.4v10.2H6.1c-.5 0-.9-.4-.9-.9z" fill="#FFFFFF" fill-opacity=".14"/>
<path d="M17 29h6l.8 4.2h-7.6z" fill="url(#network-stand)"/>
<rect x="12.5" y="32.6" width="15" height="2.6" rx="1.3" fill="url(#network-stand)"/>
<path d="M3.6 5.5h32.8" stroke="#E2E7ED" stroke-opacity=".8"/>
<circle cx="35" cy="35" r="10.1" fill="#FFFFFF" fill-opacity=".92"/>
<circle cx="35" cy="35" r="9.4" fill="url(#network-globe)"/>
<g clip-path="url(#network-sphere)" fill="none" stroke="#FFFFFF" stroke-linecap="round" stroke-opacity=".7" stroke-width="1">
<ellipse cx="35" cy="35" rx="4" ry="9.4"/>
<path d="M25.6 35h18.8"/>
<path d="M26.8 30c5 1.8 11.4 1.8 16.4 0M26.8 40c5-1.8 11.4-1.8 16.4 0" stroke-opacity=".55"/>
</g>
<ellipse cx="31.6" cy="30.2" rx="4.4" ry="2.8" fill="url(#network-shine)" transform="rotate(-24 31.6 30.2)"/>
<circle cx="35" cy="35" r="9.1" fill="none" stroke="#0E3A9E" stroke-opacity=".4" stroke-width=".7"/>
</svg>
