<svg xmlns="http://www.w3.org/2000/svg" viewBox="0 0 48 48" width="48" height="48">
<defs><linearGradient id="recycle_bin_empty-inside" x1="0" y1="0" x2="0" y2="1" gradientUnits="objectBoundingBox"><stop offset="0" stop-color="#4E6680"/><stop offset="1" stop-color="#8CA6C2"/></linearGradient><linearGradient id="recycle_bin_empty-back" x1="0" y1="0" x2="0" y2="1" gradientUnits="objectBoundingBox"><stop offset="0" stop-color="#7C96B2" stop-opacity=".55"/><stop offset="1" stop-color="#A9C0D8" stop-opacity=".35"/></linearGradient><linearGradient id="recycle_bin_empty-glass" x1="0" y1="0" x2="1" y2="0" gradientUnits="objectBoundingBox"><stop offset="0" stop-color="#E4F0FB" stop-opacity=".92"/><stop offset="0.45" stop-color="#C3D8EE" stop-opacity=".62"/><stop offset="1" stop-color="#93B0D0" stop-opacity=".9"/></linearGradient><linearGradient id="recycle_bin_empty-rim" x1="0" y1="0" x2="0" y2="1" gradientUnits="objectBoundingBox"><stop offset="0" stop-color="#E8F0F8"/><stop offset="1" stop-color="#7D93AD"/></linearGradient><linearGradient id="recycle_bin_empty-spec" x1="0" y1="0" x2="1" y2="0" gradientUnits="objectBoundingBox"><stop offset="0" stop-color="#FFFFFF" stop-opacity=".0"/><stop offset="0.45" stop-color="#FFFFFF" stop-opacity=".55"/><stop offset="1" stop-color="#FFFFFF" stop-opacity="0"/></linearGradient></defs>
<path d="M8.4 12.4 13.2 41c.2 1.3 4.9 2.3 10.8 2.3s10.6-1 10.8-2.3l4.8-28.6z" fill="url(#recycle_bin_empty-back)"/>
<ellipse cx="24" cy="12.4" rx="15.6" ry="4" fill="url(#recycle_bin_empty-inside)"/>
<path d="M8.4 12.4C8.4 14.6 15.4 16.4 24 16.4s15.6-1.8 15.6-4L34.8 41c-.2 1.3-4.9 2.3-10.8 2.3s-10.6-1-10.8-2.3z" fill="url(#recycle_bin_empty-glass)"/>
<path d="M11.2 17.2c2.1.8 3.7 1.1 5.4 1.3l2.2 23.8c-1.8-.3-3.5-.7-4.6-1.2z" fill="url(#recycle_bin_empty-spec)"/>
<path d="M8.9 13.6 13.4 40.7M39.1 13.6 34.6 40.7" fill="none" stroke="#56708E" stroke-opacity=".75" stroke-width=".9"/>
<path d="M13.3 41.1c.8 1.2 5.2 2.1 10.7 2.1s9.9-.9 10.7-2.1" fill="none" stroke="#56708E" stroke-opacity=".75" stroke-width=".9"/>
<ellipse cx="24" cy="12.4" rx="15.6" ry="4" fill="none" stroke="url(#recycle_bin_empty-rim)" stroke-width="1.8"/>
<path d="M11.6 10.4C15 9.4 19.3 8.9 24 8.9" fill="none" stroke="#FFFFFF" stroke-opacity=".85" stroke-linecap="round"/>
</svg>
